<svg width="20" height="20" viewBox="0 0 20 20" fill="none" xmlns="http://www.w3.org/2000/svg">
  <path d="M10 7.5C8.625 7.5 7.5 8.625 7.5 10C7.5 11.375 8.625 12.5 10 12.5C11.375 12.5 12.5 11.375 12.5 10C12.5 8.625 11.375 7.5 10 7.5Z" fill="currentColor"/>
  <path fill-rule="evenodd" clip-rule="evenodd" d="M13.75 3.75H6.25C4.875 3.75 3.75 4.875 3.75 6.25V13.75C3.75 15.125 4.875 16.25 6.25 16.25H13.75C15.125 16.25 16.25 15.125 16.25 13.75V6.25C16.25 4.875 15.125 3.75 13.75 3.75ZM10 13.75C7.91667 13.75 6.25 12.0833 6.25 10C6.25 7.91667 7.91667 6.25 10 6.25C12.0833 6.25 13.75 7.91667 13.75 10C13.75 12.0833 12.0833 13.75 10 13.75ZM14.1667 6.66667C13.75 6.66667 13.3333 6.25 13.3333 5.83333C13.3333 5.41667 13.75 5 14.1667 5C14.5833 5 15 5.41667 15 5.83333C15 6.25 14.5833 6.66667 14.1667 6.66667Z" fill="currentColor"/>
</svg> 