<svg width="20" height="20" viewBox="0 0 20 20" fill="none" xmlns="http://www.w3.org/2000/svg">
  <path d="M15.8333 2.5H4.16667C3.25 2.5 2.5 3.25 2.5 4.16667V15.8333C2.5 16.75 3.25 17.5 4.16667 17.5H15.8333C16.75 17.5 17.5 16.75 17.5 15.8333V4.16667C17.5 3.25 16.75 2.5 15.8333 2.5ZM7.08333 14.1667H5V8.33333H7.08333V14.1667ZM6.08333 7.41667C5.41667 7.41667 4.91667 6.91667 4.91667 6.25C4.91667 5.58333 5.41667 5.08333 6.08333 5.08333C6.75 5.08333 7.25 5.58333 7.25 6.25C7.25 6.91667 6.75 7.41667 6.08333 7.41667ZM15 14.1667H12.9167V11.25C12.9167 10.5 12.9167 9.58333 11.9167 9.58333C10.9167 9.58333 10.75 10.4167 10.75 11.25V14.1667H8.66667V8.33333H10.6667V9.16667H10.6833C10.9167 8.66667 11.5833 8.16667 12.5 8.16667C14.5833 8.16667 15 9.41667 15 11.0833V14.1667Z" fill="currentColor"/>
</svg> 