<svg width="20" height="20" viewBox="0 0 20 20" fill="none" xmlns="http://www.w3.org/2000/svg">
  <path d="M17.5 5.83325C17 6.08325 16.4167 6.24992 15.8333 6.33325C16.4167 5.99992 16.9167 5.41659 17.0833 4.74992C16.5 5.08325 15.8333 5.33325 15.1667 5.49992C14.5833 4.91659 13.8333 4.58325 13 4.58325C11.0833 4.58325 9.58333 6.08325 9.58333 7.99992C9.58333 8.24992 9.58333 8.49992 9.66667 8.74992C6.75 8.58325 4.08333 7.24992 2.33333 5.16659C2.08333 5.66659 1.91667 6.16659 1.91667 6.74992C1.91667 7.83325 2.5 8.83325 3.33333 9.41659C2.83333 9.41659 2.33333 9.24992 1.91667 8.99992V9.08325C1.91667 10.8333 3.08333 12.2499 4.58333 12.4999C4.33333 12.5833 4 12.6666 3.75 12.6666C3.58333 12.6666 3.33333 12.6666 3.16667 12.5833C3.58333 13.9999 4.91667 15.0833 6.41667 15.0833C5.16667 16.0833 3.66667 16.6666 2 16.6666C1.75 16.6666 1.5 16.6666 1.25 16.5833C2.75 17.6666 4.58333 18.2499 6.5 18.2499C13 18.2499 16.5 12.7499 16.5 7.91659C16.5 7.74992 16.5 7.66659 16.5 7.49992C17.1667 7.08325 17.6667 6.49992 18.0833 5.91659L17.5 5.83325Z" fill="currentColor"/>
</svg> 